<mxfile host="Electron" modified="2024-01-02T06:11:21.709Z" agent="Mozilla/5.0 (Windows NT 10.0; Win64; x64) AppleWebKit/537.36 (KHTML, like Gecko) draw.io/22.1.16 Chrome/120.0.6099.109 Electron/28.1.0 Safari/537.36" etag="m3D3hin6JBkZ7vfdloFh" version="22.1.16" type="device">
  <diagram name="第 1 页" id="5Rs6hqyp0kbBidMBhM9-">
    <mxGraphModel dx="1050" dy="629" grid="1" gridSize="10" guides="1" tooltips="1" connect="1" arrows="1" fold="1" page="1" pageScale="1" pageWidth="827" pageHeight="1169" math="0" shadow="0">
      <root>
        <mxCell id="0" />
        <mxCell id="1" parent="0" />
        <mxCell id="-SYMgI4g8wh1y7pJfCu8-24" value="" style="group" parent="1" vertex="1" connectable="0">
          <mxGeometry x="180" y="340" width="500" height="48" as="geometry" />
        </mxCell>
        <mxCell id="-SYMgI4g8wh1y7pJfCu8-1" value="" style="endArrow=classic;html=1;rounded=0;" parent="-SYMgI4g8wh1y7pJfCu8-24" edge="1">
          <mxGeometry width="50" height="50" relative="1" as="geometry">
            <mxPoint x="20" y="20" as="sourcePoint" />
            <mxPoint x="500" y="20" as="targetPoint" />
          </mxGeometry>
        </mxCell>
        <mxCell id="-SYMgI4g8wh1y7pJfCu8-2" value="" style="endArrow=none;html=1;rounded=0;" parent="-SYMgI4g8wh1y7pJfCu8-24" edge="1">
          <mxGeometry width="50" height="50" relative="1" as="geometry">
            <mxPoint x="20" y="20" as="sourcePoint" />
            <mxPoint x="20" as="targetPoint" />
          </mxGeometry>
        </mxCell>
        <mxCell id="-SYMgI4g8wh1y7pJfCu8-6" value="" style="endArrow=none;html=1;rounded=0;" parent="-SYMgI4g8wh1y7pJfCu8-24" edge="1">
          <mxGeometry width="50" height="50" relative="1" as="geometry">
            <mxPoint x="60" y="20" as="sourcePoint" />
            <mxPoint x="60" y="10" as="targetPoint" />
          </mxGeometry>
        </mxCell>
        <mxCell id="-SYMgI4g8wh1y7pJfCu8-7" value="" style="endArrow=none;html=1;rounded=0;" parent="-SYMgI4g8wh1y7pJfCu8-24" edge="1">
          <mxGeometry width="50" height="50" relative="1" as="geometry">
            <mxPoint x="100" y="20" as="sourcePoint" />
            <mxPoint x="100" as="targetPoint" />
          </mxGeometry>
        </mxCell>
        <mxCell id="-SYMgI4g8wh1y7pJfCu8-8" value="" style="endArrow=none;html=1;rounded=0;" parent="-SYMgI4g8wh1y7pJfCu8-24" edge="1">
          <mxGeometry width="50" height="50" relative="1" as="geometry">
            <mxPoint x="140" y="20" as="sourcePoint" />
            <mxPoint x="140" y="10" as="targetPoint" />
          </mxGeometry>
        </mxCell>
        <mxCell id="-SYMgI4g8wh1y7pJfCu8-9" value="" style="endArrow=none;html=1;rounded=0;" parent="-SYMgI4g8wh1y7pJfCu8-24" edge="1">
          <mxGeometry width="50" height="50" relative="1" as="geometry">
            <mxPoint x="180" y="20" as="sourcePoint" />
            <mxPoint x="180" as="targetPoint" />
          </mxGeometry>
        </mxCell>
        <mxCell id="-SYMgI4g8wh1y7pJfCu8-10" value="" style="endArrow=none;html=1;rounded=0;" parent="-SYMgI4g8wh1y7pJfCu8-24" edge="1">
          <mxGeometry width="50" height="50" relative="1" as="geometry">
            <mxPoint x="220" y="20" as="sourcePoint" />
            <mxPoint x="220" y="10" as="targetPoint" />
          </mxGeometry>
        </mxCell>
        <mxCell id="-SYMgI4g8wh1y7pJfCu8-11" value="" style="endArrow=none;html=1;rounded=0;" parent="-SYMgI4g8wh1y7pJfCu8-24" edge="1">
          <mxGeometry width="50" height="50" relative="1" as="geometry">
            <mxPoint x="260" y="20" as="sourcePoint" />
            <mxPoint x="260" as="targetPoint" />
          </mxGeometry>
        </mxCell>
        <mxCell id="-SYMgI4g8wh1y7pJfCu8-12" value="" style="endArrow=none;html=1;rounded=0;" parent="-SYMgI4g8wh1y7pJfCu8-24" edge="1">
          <mxGeometry width="50" height="50" relative="1" as="geometry">
            <mxPoint x="300" y="20" as="sourcePoint" />
            <mxPoint x="300" y="10" as="targetPoint" />
          </mxGeometry>
        </mxCell>
        <mxCell id="-SYMgI4g8wh1y7pJfCu8-13" value="" style="endArrow=none;html=1;rounded=0;" parent="-SYMgI4g8wh1y7pJfCu8-24" edge="1">
          <mxGeometry width="50" height="50" relative="1" as="geometry">
            <mxPoint x="340" y="20" as="sourcePoint" />
            <mxPoint x="340" as="targetPoint" />
          </mxGeometry>
        </mxCell>
        <mxCell id="-SYMgI4g8wh1y7pJfCu8-14" value="0s" style="text;html=1;align=center;verticalAlign=middle;resizable=0;points=[];autosize=1;strokeColor=none;fillColor=none;" parent="-SYMgI4g8wh1y7pJfCu8-24" vertex="1">
          <mxGeometry y="18" width="40" height="30" as="geometry" />
        </mxCell>
        <mxCell id="-SYMgI4g8wh1y7pJfCu8-16" value="10s" style="text;html=1;align=center;verticalAlign=middle;resizable=0;points=[];autosize=1;strokeColor=none;fillColor=none;" parent="-SYMgI4g8wh1y7pJfCu8-24" vertex="1">
          <mxGeometry x="80" y="18" width="40" height="30" as="geometry" />
        </mxCell>
        <mxCell id="-SYMgI4g8wh1y7pJfCu8-18" value="20s" style="text;html=1;align=center;verticalAlign=middle;resizable=0;points=[];autosize=1;strokeColor=none;fillColor=none;" parent="-SYMgI4g8wh1y7pJfCu8-24" vertex="1">
          <mxGeometry x="160" y="18" width="40" height="30" as="geometry" />
        </mxCell>
        <mxCell id="-SYMgI4g8wh1y7pJfCu8-19" value="30s" style="text;html=1;align=center;verticalAlign=middle;resizable=0;points=[];autosize=1;strokeColor=none;fillColor=none;" parent="-SYMgI4g8wh1y7pJfCu8-24" vertex="1">
          <mxGeometry x="240" y="18" width="40" height="30" as="geometry" />
        </mxCell>
        <mxCell id="-SYMgI4g8wh1y7pJfCu8-20" value="40s" style="text;html=1;align=center;verticalAlign=middle;resizable=0;points=[];autosize=1;strokeColor=none;fillColor=none;" parent="-SYMgI4g8wh1y7pJfCu8-24" vertex="1">
          <mxGeometry x="320" y="18" width="40" height="30" as="geometry" />
        </mxCell>
        <mxCell id="-SYMgI4g8wh1y7pJfCu8-21" value="" style="endArrow=none;html=1;rounded=0;" parent="-SYMgI4g8wh1y7pJfCu8-24" edge="1">
          <mxGeometry width="50" height="50" relative="1" as="geometry">
            <mxPoint x="380" y="20" as="sourcePoint" />
            <mxPoint x="380" y="10" as="targetPoint" />
          </mxGeometry>
        </mxCell>
        <mxCell id="-SYMgI4g8wh1y7pJfCu8-22" value="" style="endArrow=none;html=1;rounded=0;" parent="-SYMgI4g8wh1y7pJfCu8-24" edge="1">
          <mxGeometry width="50" height="50" relative="1" as="geometry">
            <mxPoint x="420" y="20" as="sourcePoint" />
            <mxPoint x="420" as="targetPoint" />
          </mxGeometry>
        </mxCell>
        <mxCell id="-SYMgI4g8wh1y7pJfCu8-23" value="50s" style="text;html=1;align=center;verticalAlign=middle;resizable=0;points=[];autosize=1;strokeColor=none;fillColor=none;" parent="-SYMgI4g8wh1y7pJfCu8-24" vertex="1">
          <mxGeometry x="400" y="18" width="40" height="30" as="geometry" />
        </mxCell>
        <mxCell id="-SYMgI4g8wh1y7pJfCu8-25" value="1s" style="rounded=0;whiteSpace=wrap;html=1;fillColor=#f9f7ed;strokeColor=#36393d;" parent="1" vertex="1">
          <mxGeometry x="200" y="300" width="10" height="20" as="geometry" />
        </mxCell>
        <mxCell id="-SYMgI4g8wh1y7pJfCu8-26" value="5s" style="rounded=0;whiteSpace=wrap;html=1;fillColor=#f9f7ed;strokeColor=#36393d;" parent="1" vertex="1">
          <mxGeometry x="280" y="300" width="50" height="20" as="geometry" />
        </mxCell>
        <mxCell id="-SYMgI4g8wh1y7pJfCu8-27" value="3s" style="rounded=0;whiteSpace=wrap;html=1;fillColor=#f9f7ed;strokeColor=#36393d;" parent="1" vertex="1">
          <mxGeometry x="360" y="300" width="20" height="20" as="geometry" />
        </mxCell>
        <mxCell id="-SYMgI4g8wh1y7pJfCu8-28" value="5s" style="rounded=0;whiteSpace=wrap;html=1;fillColor=#f9f7ed;strokeColor=#36393d;" parent="1" vertex="1">
          <mxGeometry x="440" y="300" width="40" height="20" as="geometry" />
        </mxCell>
        <mxCell id="-SYMgI4g8wh1y7pJfCu8-29" value="1s" style="rounded=0;whiteSpace=wrap;html=1;fillColor=#f9f7ed;strokeColor=#36393d;" parent="1" vertex="1">
          <mxGeometry x="520" y="300" width="10" height="20" as="geometry" />
        </mxCell>
        <mxCell id="-SYMgI4g8wh1y7pJfCu8-30" value="" style="group" parent="1" vertex="1" connectable="0">
          <mxGeometry x="180" y="500" width="500" height="48" as="geometry" />
        </mxCell>
        <mxCell id="-SYMgI4g8wh1y7pJfCu8-31" value="" style="endArrow=classic;html=1;rounded=0;" parent="-SYMgI4g8wh1y7pJfCu8-30" edge="1">
          <mxGeometry width="50" height="50" relative="1" as="geometry">
            <mxPoint x="20" y="20" as="sourcePoint" />
            <mxPoint x="500" y="20" as="targetPoint" />
          </mxGeometry>
        </mxCell>
        <mxCell id="-SYMgI4g8wh1y7pJfCu8-32" value="" style="endArrow=none;html=1;rounded=0;" parent="-SYMgI4g8wh1y7pJfCu8-30" edge="1">
          <mxGeometry width="50" height="50" relative="1" as="geometry">
            <mxPoint x="20" y="20" as="sourcePoint" />
            <mxPoint x="20" as="targetPoint" />
          </mxGeometry>
        </mxCell>
        <mxCell id="-SYMgI4g8wh1y7pJfCu8-33" value="" style="endArrow=none;html=1;rounded=0;" parent="-SYMgI4g8wh1y7pJfCu8-30" edge="1">
          <mxGeometry width="50" height="50" relative="1" as="geometry">
            <mxPoint x="60" y="20" as="sourcePoint" />
            <mxPoint x="60" y="10" as="targetPoint" />
          </mxGeometry>
        </mxCell>
        <mxCell id="-SYMgI4g8wh1y7pJfCu8-34" value="" style="endArrow=none;html=1;rounded=0;" parent="-SYMgI4g8wh1y7pJfCu8-30" edge="1">
          <mxGeometry width="50" height="50" relative="1" as="geometry">
            <mxPoint x="100" y="20" as="sourcePoint" />
            <mxPoint x="100" as="targetPoint" />
          </mxGeometry>
        </mxCell>
        <mxCell id="-SYMgI4g8wh1y7pJfCu8-35" value="" style="endArrow=none;html=1;rounded=0;" parent="-SYMgI4g8wh1y7pJfCu8-30" edge="1">
          <mxGeometry width="50" height="50" relative="1" as="geometry">
            <mxPoint x="140" y="20" as="sourcePoint" />
            <mxPoint x="140" y="10" as="targetPoint" />
          </mxGeometry>
        </mxCell>
        <mxCell id="-SYMgI4g8wh1y7pJfCu8-36" value="" style="endArrow=none;html=1;rounded=0;" parent="-SYMgI4g8wh1y7pJfCu8-30" edge="1">
          <mxGeometry width="50" height="50" relative="1" as="geometry">
            <mxPoint x="180" y="20" as="sourcePoint" />
            <mxPoint x="180" as="targetPoint" />
          </mxGeometry>
        </mxCell>
        <mxCell id="-SYMgI4g8wh1y7pJfCu8-37" value="" style="endArrow=none;html=1;rounded=0;" parent="-SYMgI4g8wh1y7pJfCu8-30" edge="1">
          <mxGeometry width="50" height="50" relative="1" as="geometry">
            <mxPoint x="220" y="20" as="sourcePoint" />
            <mxPoint x="220" y="10" as="targetPoint" />
          </mxGeometry>
        </mxCell>
        <mxCell id="-SYMgI4g8wh1y7pJfCu8-38" value="" style="endArrow=none;html=1;rounded=0;" parent="-SYMgI4g8wh1y7pJfCu8-30" edge="1">
          <mxGeometry width="50" height="50" relative="1" as="geometry">
            <mxPoint x="260" y="20" as="sourcePoint" />
            <mxPoint x="260" as="targetPoint" />
          </mxGeometry>
        </mxCell>
        <mxCell id="-SYMgI4g8wh1y7pJfCu8-39" value="" style="endArrow=none;html=1;rounded=0;" parent="-SYMgI4g8wh1y7pJfCu8-30" edge="1">
          <mxGeometry width="50" height="50" relative="1" as="geometry">
            <mxPoint x="300" y="20" as="sourcePoint" />
            <mxPoint x="300" y="10" as="targetPoint" />
          </mxGeometry>
        </mxCell>
        <mxCell id="-SYMgI4g8wh1y7pJfCu8-40" value="" style="endArrow=none;html=1;rounded=0;" parent="-SYMgI4g8wh1y7pJfCu8-30" edge="1">
          <mxGeometry width="50" height="50" relative="1" as="geometry">
            <mxPoint x="340" y="20" as="sourcePoint" />
            <mxPoint x="340" as="targetPoint" />
          </mxGeometry>
        </mxCell>
        <mxCell id="-SYMgI4g8wh1y7pJfCu8-41" value="0s" style="text;html=1;align=center;verticalAlign=middle;resizable=0;points=[];autosize=1;strokeColor=none;fillColor=none;" parent="-SYMgI4g8wh1y7pJfCu8-30" vertex="1">
          <mxGeometry y="18" width="40" height="30" as="geometry" />
        </mxCell>
        <mxCell id="-SYMgI4g8wh1y7pJfCu8-42" value="10s" style="text;html=1;align=center;verticalAlign=middle;resizable=0;points=[];autosize=1;strokeColor=none;fillColor=none;" parent="-SYMgI4g8wh1y7pJfCu8-30" vertex="1">
          <mxGeometry x="80" y="18" width="40" height="30" as="geometry" />
        </mxCell>
        <mxCell id="-SYMgI4g8wh1y7pJfCu8-43" value="20s" style="text;html=1;align=center;verticalAlign=middle;resizable=0;points=[];autosize=1;strokeColor=none;fillColor=none;" parent="-SYMgI4g8wh1y7pJfCu8-30" vertex="1">
          <mxGeometry x="160" y="18" width="40" height="30" as="geometry" />
        </mxCell>
        <mxCell id="-SYMgI4g8wh1y7pJfCu8-44" value="30s" style="text;html=1;align=center;verticalAlign=middle;resizable=0;points=[];autosize=1;strokeColor=none;fillColor=none;" parent="-SYMgI4g8wh1y7pJfCu8-30" vertex="1">
          <mxGeometry x="240" y="18" width="40" height="30" as="geometry" />
        </mxCell>
        <mxCell id="-SYMgI4g8wh1y7pJfCu8-45" value="40s" style="text;html=1;align=center;verticalAlign=middle;resizable=0;points=[];autosize=1;strokeColor=none;fillColor=none;" parent="-SYMgI4g8wh1y7pJfCu8-30" vertex="1">
          <mxGeometry x="320" y="18" width="40" height="30" as="geometry" />
        </mxCell>
        <mxCell id="-SYMgI4g8wh1y7pJfCu8-46" value="" style="endArrow=none;html=1;rounded=0;" parent="-SYMgI4g8wh1y7pJfCu8-30" edge="1">
          <mxGeometry width="50" height="50" relative="1" as="geometry">
            <mxPoint x="380" y="20" as="sourcePoint" />
            <mxPoint x="380" y="10" as="targetPoint" />
          </mxGeometry>
        </mxCell>
        <mxCell id="-SYMgI4g8wh1y7pJfCu8-47" value="" style="endArrow=none;html=1;rounded=0;" parent="-SYMgI4g8wh1y7pJfCu8-30" edge="1">
          <mxGeometry width="50" height="50" relative="1" as="geometry">
            <mxPoint x="420" y="20" as="sourcePoint" />
            <mxPoint x="420" as="targetPoint" />
          </mxGeometry>
        </mxCell>
        <mxCell id="-SYMgI4g8wh1y7pJfCu8-48" value="50s" style="text;html=1;align=center;verticalAlign=middle;resizable=0;points=[];autosize=1;strokeColor=none;fillColor=none;" parent="-SYMgI4g8wh1y7pJfCu8-30" vertex="1">
          <mxGeometry x="400" y="18" width="40" height="30" as="geometry" />
        </mxCell>
        <mxCell id="-SYMgI4g8wh1y7pJfCu8-50" value="1s" style="rounded=0;whiteSpace=wrap;html=1;fillColor=#f9f7ed;strokeColor=#36393d;" parent="1" vertex="1">
          <mxGeometry x="200" y="460" width="10" height="20" as="geometry" />
        </mxCell>
        <mxCell id="-SYMgI4g8wh1y7pJfCu8-54" value="21s" style="rounded=0;whiteSpace=wrap;html=1;fillColor=#f9f7ed;strokeColor=#36393d;" parent="1" vertex="1">
          <mxGeometry x="280" y="460" width="170" height="20" as="geometry" />
        </mxCell>
        <mxCell id="-SYMgI4g8wh1y7pJfCu8-55" value="3s" style="rounded=0;whiteSpace=wrap;html=1;fillColor=#f9f7ed;strokeColor=#36393d;" parent="1" vertex="1">
          <mxGeometry x="450" y="460" width="20" height="20" as="geometry" />
        </mxCell>
        <mxCell id="-SYMgI4g8wh1y7pJfCu8-56" value="5s" style="rounded=0;whiteSpace=wrap;html=1;fillColor=#f9f7ed;strokeColor=#36393d;" parent="1" vertex="1">
          <mxGeometry x="530" y="460" width="40" height="20" as="geometry" />
        </mxCell>
        <mxCell id="-SYMgI4g8wh1y7pJfCu8-57" value="1s" style="rounded=0;whiteSpace=wrap;html=1;fillColor=#f9f7ed;strokeColor=#36393d;" parent="1" vertex="1">
          <mxGeometry x="610" y="460" width="10" height="20" as="geometry" />
        </mxCell>
        <mxCell id="-SYMgI4g8wh1y7pJfCu8-61" value="" style="shape=curlyBracket;whiteSpace=wrap;html=1;rounded=1;labelPosition=left;verticalLabelPosition=middle;align=right;verticalAlign=middle;direction=south;" parent="1" vertex="1">
          <mxGeometry x="450" y="440" width="80" height="20" as="geometry" />
        </mxCell>
        <mxCell id="-SYMgI4g8wh1y7pJfCu8-62" value="间隔10s" style="text;html=1;align=center;verticalAlign=middle;resizable=0;points=[];autosize=1;strokeColor=none;fillColor=none;fontColor=#FF0000;fontStyle=1" parent="1" vertex="1">
          <mxGeometry x="455" y="420" width="70" height="30" as="geometry" />
        </mxCell>
        <mxCell id="-SYMgI4g8wh1y7pJfCu8-64" value="" style="shape=curlyBracket;whiteSpace=wrap;html=1;rounded=1;flipH=1;labelPosition=right;verticalLabelPosition=middle;align=left;verticalAlign=middle;direction=south;" parent="1" vertex="1">
          <mxGeometry x="200" y="280" width="80" height="20" as="geometry" />
        </mxCell>
        <mxCell id="-SYMgI4g8wh1y7pJfCu8-65" value="间隔10s" style="text;html=1;align=center;verticalAlign=middle;resizable=0;points=[];autosize=1;strokeColor=none;fillColor=none;fontColor=#FF0000;fontStyle=1" parent="1" vertex="1">
          <mxGeometry x="205" y="260" width="70" height="30" as="geometry" />
        </mxCell>
        <mxCell id="-SYMgI4g8wh1y7pJfCu8-66" value="" style="group" parent="1" vertex="1" connectable="0">
          <mxGeometry x="180" y="650" width="500" height="58" as="geometry" />
        </mxCell>
        <mxCell id="-SYMgI4g8wh1y7pJfCu8-77" value="0s" style="text;html=1;align=center;verticalAlign=middle;resizable=0;points=[];autosize=1;strokeColor=none;fillColor=none;" parent="-SYMgI4g8wh1y7pJfCu8-66" vertex="1">
          <mxGeometry y="28" width="40" height="30" as="geometry" />
        </mxCell>
        <mxCell id="-SYMgI4g8wh1y7pJfCu8-67" value="" style="endArrow=classic;html=1;rounded=0;" parent="-SYMgI4g8wh1y7pJfCu8-66" edge="1">
          <mxGeometry width="50" height="50" relative="1" as="geometry">
            <mxPoint x="20" y="30" as="sourcePoint" />
            <mxPoint x="500" y="30" as="targetPoint" />
          </mxGeometry>
        </mxCell>
        <mxCell id="-SYMgI4g8wh1y7pJfCu8-68" value="" style="endArrow=none;html=1;rounded=0;" parent="-SYMgI4g8wh1y7pJfCu8-66" edge="1">
          <mxGeometry width="50" height="50" relative="1" as="geometry">
            <mxPoint x="20" y="30" as="sourcePoint" />
            <mxPoint x="20" y="10" as="targetPoint" />
          </mxGeometry>
        </mxCell>
        <mxCell id="-SYMgI4g8wh1y7pJfCu8-69" value="" style="endArrow=none;html=1;rounded=0;" parent="-SYMgI4g8wh1y7pJfCu8-66" edge="1">
          <mxGeometry width="50" height="50" relative="1" as="geometry">
            <mxPoint x="60" y="30" as="sourcePoint" />
            <mxPoint x="60" y="20" as="targetPoint" />
          </mxGeometry>
        </mxCell>
        <mxCell id="-SYMgI4g8wh1y7pJfCu8-70" value="" style="endArrow=none;html=1;rounded=0;" parent="-SYMgI4g8wh1y7pJfCu8-66" edge="1">
          <mxGeometry width="50" height="50" relative="1" as="geometry">
            <mxPoint x="100" y="30" as="sourcePoint" />
            <mxPoint x="100" y="10" as="targetPoint" />
          </mxGeometry>
        </mxCell>
        <mxCell id="-SYMgI4g8wh1y7pJfCu8-71" value="" style="endArrow=none;html=1;rounded=0;" parent="-SYMgI4g8wh1y7pJfCu8-66" edge="1">
          <mxGeometry width="50" height="50" relative="1" as="geometry">
            <mxPoint x="140" y="30" as="sourcePoint" />
            <mxPoint x="140" y="20" as="targetPoint" />
          </mxGeometry>
        </mxCell>
        <mxCell id="-SYMgI4g8wh1y7pJfCu8-72" value="" style="endArrow=none;html=1;rounded=0;" parent="-SYMgI4g8wh1y7pJfCu8-66" edge="1">
          <mxGeometry width="50" height="50" relative="1" as="geometry">
            <mxPoint x="180" y="30" as="sourcePoint" />
            <mxPoint x="180" y="10" as="targetPoint" />
          </mxGeometry>
        </mxCell>
        <mxCell id="-SYMgI4g8wh1y7pJfCu8-73" value="" style="endArrow=none;html=1;rounded=0;" parent="-SYMgI4g8wh1y7pJfCu8-66" edge="1">
          <mxGeometry width="50" height="50" relative="1" as="geometry">
            <mxPoint x="220" y="30" as="sourcePoint" />
            <mxPoint x="220" y="20" as="targetPoint" />
          </mxGeometry>
        </mxCell>
        <mxCell id="-SYMgI4g8wh1y7pJfCu8-74" value="" style="endArrow=none;html=1;rounded=0;" parent="-SYMgI4g8wh1y7pJfCu8-66" edge="1">
          <mxGeometry width="50" height="50" relative="1" as="geometry">
            <mxPoint x="260" y="30" as="sourcePoint" />
            <mxPoint x="260" y="10" as="targetPoint" />
          </mxGeometry>
        </mxCell>
        <mxCell id="-SYMgI4g8wh1y7pJfCu8-75" value="" style="endArrow=none;html=1;rounded=0;" parent="-SYMgI4g8wh1y7pJfCu8-66" edge="1">
          <mxGeometry width="50" height="50" relative="1" as="geometry">
            <mxPoint x="300" y="30" as="sourcePoint" />
            <mxPoint x="300" y="20" as="targetPoint" />
          </mxGeometry>
        </mxCell>
        <mxCell id="-SYMgI4g8wh1y7pJfCu8-76" value="" style="endArrow=none;html=1;rounded=0;" parent="-SYMgI4g8wh1y7pJfCu8-66" edge="1">
          <mxGeometry width="50" height="50" relative="1" as="geometry">
            <mxPoint x="340" y="30" as="sourcePoint" />
            <mxPoint x="340" y="10" as="targetPoint" />
          </mxGeometry>
        </mxCell>
        <mxCell id="-SYMgI4g8wh1y7pJfCu8-78" value="10s" style="text;html=1;align=center;verticalAlign=middle;resizable=0;points=[];autosize=1;strokeColor=none;fillColor=none;" parent="-SYMgI4g8wh1y7pJfCu8-66" vertex="1">
          <mxGeometry x="80" y="28" width="40" height="30" as="geometry" />
        </mxCell>
        <mxCell id="-SYMgI4g8wh1y7pJfCu8-79" value="20s" style="text;html=1;align=center;verticalAlign=middle;resizable=0;points=[];autosize=1;strokeColor=none;fillColor=none;" parent="-SYMgI4g8wh1y7pJfCu8-66" vertex="1">
          <mxGeometry x="160" y="28" width="40" height="30" as="geometry" />
        </mxCell>
        <mxCell id="-SYMgI4g8wh1y7pJfCu8-80" value="30s" style="text;html=1;align=center;verticalAlign=middle;resizable=0;points=[];autosize=1;strokeColor=none;fillColor=none;" parent="-SYMgI4g8wh1y7pJfCu8-66" vertex="1">
          <mxGeometry x="240" y="28" width="40" height="30" as="geometry" />
        </mxCell>
        <mxCell id="-SYMgI4g8wh1y7pJfCu8-81" value="40s" style="text;html=1;align=center;verticalAlign=middle;resizable=0;points=[];autosize=1;strokeColor=none;fillColor=none;" parent="-SYMgI4g8wh1y7pJfCu8-66" vertex="1">
          <mxGeometry x="320" y="28" width="40" height="30" as="geometry" />
        </mxCell>
        <mxCell id="-SYMgI4g8wh1y7pJfCu8-82" value="" style="endArrow=none;html=1;rounded=0;" parent="-SYMgI4g8wh1y7pJfCu8-66" edge="1">
          <mxGeometry width="50" height="50" relative="1" as="geometry">
            <mxPoint x="380" y="30" as="sourcePoint" />
            <mxPoint x="380" y="20" as="targetPoint" />
          </mxGeometry>
        </mxCell>
        <mxCell id="-SYMgI4g8wh1y7pJfCu8-83" value="" style="endArrow=none;html=1;rounded=0;" parent="-SYMgI4g8wh1y7pJfCu8-66" edge="1">
          <mxGeometry width="50" height="50" relative="1" as="geometry">
            <mxPoint x="420" y="30" as="sourcePoint" />
            <mxPoint x="420" y="10" as="targetPoint" />
          </mxGeometry>
        </mxCell>
        <mxCell id="-SYMgI4g8wh1y7pJfCu8-84" value="50s" style="text;html=1;align=center;verticalAlign=middle;resizable=0;points=[];autosize=1;strokeColor=none;fillColor=none;" parent="-SYMgI4g8wh1y7pJfCu8-66" vertex="1">
          <mxGeometry x="400" y="28" width="40" height="30" as="geometry" />
        </mxCell>
        <mxCell id="-SYMgI4g8wh1y7pJfCu8-85" value="1s" style="rounded=0;whiteSpace=wrap;html=1;fillColor=#f9f7ed;strokeColor=#36393d;" parent="-SYMgI4g8wh1y7pJfCu8-66" vertex="1">
          <mxGeometry x="20" y="-30" width="10" height="20" as="geometry" />
        </mxCell>
        <mxCell id="-SYMgI4g8wh1y7pJfCu8-86" value="21s" style="rounded=0;whiteSpace=wrap;html=1;fillColor=#f9f7ed;strokeColor=#36393d;" parent="-SYMgI4g8wh1y7pJfCu8-66" vertex="1">
          <mxGeometry x="100" y="-30" width="170" height="20" as="geometry" />
        </mxCell>
        <mxCell id="-SYMgI4g8wh1y7pJfCu8-87" value="3s" style="rounded=0;whiteSpace=wrap;html=1;fillColor=#f9f7ed;strokeColor=#36393d;" parent="-SYMgI4g8wh1y7pJfCu8-66" vertex="1">
          <mxGeometry x="270" y="-30" width="20" height="20" as="geometry" />
        </mxCell>
        <mxCell id="-SYMgI4g8wh1y7pJfCu8-88" value="5s" style="rounded=0;whiteSpace=wrap;html=1;fillColor=#f9f7ed;strokeColor=#36393d;" parent="-SYMgI4g8wh1y7pJfCu8-66" vertex="1">
          <mxGeometry x="290" y="-30" width="40" height="20" as="geometry" />
        </mxCell>
        <mxCell id="-SYMgI4g8wh1y7pJfCu8-89" value="1s" style="rounded=0;whiteSpace=wrap;html=1;fillColor=#f9f7ed;strokeColor=#36393d;" parent="-SYMgI4g8wh1y7pJfCu8-66" vertex="1">
          <mxGeometry x="340" y="-30" width="10" height="20" as="geometry" />
        </mxCell>
        <mxCell id="-SYMgI4g8wh1y7pJfCu8-90" value="schedule(task, now, 10s)" style="text;html=1;align=center;verticalAlign=middle;resizable=0;points=[];autosize=1;strokeColor=none;fillColor=none;fontSize=16;fontStyle=1" parent="1" vertex="1">
          <mxGeometry x="325" y="548" width="210" height="30" as="geometry" />
        </mxCell>
        <mxCell id="-SYMgI4g8wh1y7pJfCu8-91" value="scheduleAtFixedRate(task, now, 10s)" style="text;html=1;align=center;verticalAlign=middle;resizable=0;points=[];autosize=1;strokeColor=none;fillColor=none;fontSize=16;fontStyle=1" parent="1" vertex="1">
          <mxGeometry x="290" y="708" width="300" height="30" as="geometry" />
        </mxCell>
        <mxCell id="vh7uE73NVqiwjydxwEqz-1" value="" style="shape=curlyBracket;whiteSpace=wrap;html=1;rounded=1;flipH=1;labelPosition=right;verticalLabelPosition=middle;align=left;verticalAlign=middle;direction=south;" vertex="1" parent="1">
          <mxGeometry x="200" y="440" width="80" height="20" as="geometry" />
        </mxCell>
        <mxCell id="vh7uE73NVqiwjydxwEqz-2" value="间隔10s" style="text;html=1;align=center;verticalAlign=middle;resizable=0;points=[];autosize=1;strokeColor=none;fillColor=none;fontColor=#FF0000;fontStyle=1" vertex="1" parent="1">
          <mxGeometry x="205" y="420" width="70" height="30" as="geometry" />
        </mxCell>
        <mxCell id="vh7uE73NVqiwjydxwEqz-3" value="" style="shape=curlyBracket;whiteSpace=wrap;html=1;rounded=1;flipH=1;labelPosition=right;verticalLabelPosition=middle;align=left;verticalAlign=middle;direction=south;" vertex="1" parent="1">
          <mxGeometry x="280" y="280" width="80" height="20" as="geometry" />
        </mxCell>
        <mxCell id="vh7uE73NVqiwjydxwEqz-4" value="间隔10s" style="text;html=1;align=center;verticalAlign=middle;resizable=0;points=[];autosize=1;strokeColor=none;fillColor=none;fontColor=#FF0000;fontStyle=1" vertex="1" parent="1">
          <mxGeometry x="285" y="260" width="70" height="30" as="geometry" />
        </mxCell>
        <mxCell id="vh7uE73NVqiwjydxwEqz-5" value="" style="shape=curlyBracket;whiteSpace=wrap;html=1;rounded=1;flipH=1;labelPosition=right;verticalLabelPosition=middle;align=left;verticalAlign=middle;direction=south;" vertex="1" parent="1">
          <mxGeometry x="530" y="440" width="80" height="20" as="geometry" />
        </mxCell>
        <mxCell id="vh7uE73NVqiwjydxwEqz-6" value="间隔10s" style="text;html=1;align=center;verticalAlign=middle;resizable=0;points=[];autosize=1;strokeColor=none;fillColor=none;fontColor=#FF0000;fontStyle=1" vertex="1" parent="1">
          <mxGeometry x="535" y="420" width="70" height="30" as="geometry" />
        </mxCell>
        <mxCell id="vh7uE73NVqiwjydxwEqz-7" value="nxt" style="text;html=1;align=center;verticalAlign=middle;resizable=0;points=[];autosize=1;strokeColor=none;fillColor=none;fontColor=#FFFFFF;" vertex="1" parent="1">
          <mxGeometry x="160" y="240" width="40" height="30" as="geometry" />
        </mxCell>
        <mxCell id="vh7uE73NVqiwjydxwEqz-8" value="nxt" style="text;html=1;align=center;verticalAlign=middle;resizable=0;points=[];autosize=1;strokeColor=none;fillColor=none;fontColor=#FFFFFF;" vertex="1" parent="1">
          <mxGeometry x="650" y="700" width="40" height="30" as="geometry" />
        </mxCell>
      </root>
    </mxGraphModel>
  </diagram>
</mxfile>
